HIERARCHY
ROOT Hips
{
	OFFSET 0.00000 0.00000 0.00000
	CHANNELS 6 Xposition Yposition Zposition Zrotation Yrotation Xrotation 
	JOINT LHipJoint
	{
		OFFSET 0 0 0
		CHANNELS 3 Zrotation Yrotation Xrotation
		JOINT LeftHip
		{
			OFFSET 1.17584 -1.63585 1.00361
			CHANNELS 3 Zrotation Yrotation Xrotation
			JOINT LeftKnee
			{
				OFFSET 2.23889 -6.15131 0.00000
				CHANNELS 3 Zrotation Yrotation Xrotation
				JOINT LeftAnkle
				{
					OFFSET 2.65161 -7.28525 0.00000
					CHANNELS 3 Zrotation Yrotation Xrotation
					JOINT LeftToe
					{
						OFFSET 0.24898 -0.68407 1.57235
						CHANNELS 3 Zrotation Yrotation Xrotation
						End Site
						{
							OFFSET 0.00000 -0.00000 0.85838
						}
					}
				}
			}
		}
	}
	JOINT RHipJoint
	{
		OFFSET 0 0 0
		CHANNELS 3 Zrotation Yrotation Xrotation
		JOINT RightHip
		{
			OFFSET -1.15592 -1.63585 1.00361
			CHANNELS 3 Zrotation Yrotation Xrotation
			JOINT RightKnee
			{
				OFFSET -2.34071 -6.43104 0.00000
				CHANNELS 3 Zrotation Yrotation Xrotation
				JOINT RightAnkle
				{
					OFFSET -2.59113 -7.11908 0.00000
					CHANNELS 3 Zrotation Yrotation Xrotation
					JOINT RightToe
					{
						OFFSET -0.17867 -0.49089 1.70981
						CHANNELS 3 Zrotation Yrotation Xrotation
						End Site
						{
							OFFSET -0.00000 -0.00000 0.89861
						}
					}
				}
			}
		}
	}
	JOINT lowerback
	{
		OFFSET 0 0 0
		CHANNELS 3 Zrotation Yrotation Xrotation
		JOINT Chest
		{
			OFFSET -0.02255 1.90764 -0.16605
			CHANNELS 3 Zrotation Yrotation Xrotation
			JOINT Chest2
			{
				OFFSET -0.00365 1.92150 -0.04898
				CHANNELS 3 Zrotation Yrotation Xrotation
				JOINT lowerneck
				{
					OFFSET 0 0 0
					CHANNELS 3 Zrotation Yrotation Xrotation
					JOINT Neck
					{
						OFFSET 0.00372 1.59170 0.08694
						CHANNELS 3 Zrotation Yrotation Xrotation
						JOINT Head
						{
							OFFSET 0.12558 1.58643 -0.08078
							CHANNELS 3 Zrotation Yrotation Xrotation
							End Site
							{
								OFFSET 0.04211 1.60835 -0.03803
							}
						}
					}
				}
				JOINT LeftCollar
				{
					OFFSET 0 0 0
					CHANNELS 3 Zrotation Yrotation Xrotation
					JOINT LeftShoulder
					{
						OFFSET 3.69324 0.96316 0.19077
CHANNELS 3 Zrotation Xrotation Yrotation
						JOINT LeftElbow
						{
OFFSET 0 -4.877960 -0.000000
CHANNELS 3 Zrotation Xrotation Yrotation
							JOINT LeftWrist
							{
OFFSET 0 -3.231690 0.000000
CHANNELS 3 Zrotation Xrotation Yrotation
								JOINT lhand
								{
									OFFSET 0 0 0
CHANNELS 3 Zrotation Xrotation Yrotation
									JOINT LFingers
									{
OFFSET 0 -0.731320 0.000000
CHANNELS 3 Zrotation Xrotation Yrotation
										End Site
										{
OFFSET 0 -0.589610 0.000000
										}
									}
								}
								JOINT LThumb
								{
OFFSET 0 0.000000 0.000000
CHANNELS 3 Zrotation Xrotation Yrotation
									End Site
									{
OFFSET 0 -0.598610 0.598610
									}
								}
							}
						}
					}
				}
				JOINT RightCollar
				{
					OFFSET 0 0 0
					CHANNELS 3 Zrotation Yrotation Xrotation
					JOINT RightShoulder
					{
						OFFSET -3.66103 0.75145 0.08281
CHANNELS 3 Zrotation Xrotation Yrotation
						JOINT RightElbow
						{
OFFSET 0 -4.914300 0.000000
CHANNELS 3 Zrotation Xrotation Yrotation
							JOINT RightWrist
							{
OFFSET 0 -3.290930 0.000000
CHANNELS 3 Zrotation Xrotation Yrotation
								JOINT rhand
								{
									OFFSET 0 0 0
CHANNELS 3 Zrotation Xrotation Yrotation
									JOINT RFingers
									{
OFFSET 0 -0.545120 0.000000
CHANNELS 3 Zrotation Xrotation Yrotation
										End Site
										{
OFFSET 0 -0.439490 0.000000
										}
									}
								}
								JOINT RThumb
								{
OFFSET 0 0.000000 0.000000
CHANNELS 3 Zrotation Xrotation Yrotation
									End Site
									{
OFFSET 0 -0.446200 0.446200
									}
								}
							}
						}
					}
				}
			}
		}
	}
}
MOTION
Frames: 5
Frame Time: 0.008333333333333333
-13.421579 13.950175 0.566007 782.452623 -43.176520 -284.255589 0.000000 0.000000 0.000000 2.219912 -7.164101 -69.930726 8.704123 16.611542 55.058128 2.334627 2.884118 -30.016746 3.810101 -11.903275 -35.390816 0.000000 0.000000 0.000000 -18.584573 22.845500 -24.211364 -6.851993 -15.195760 48.294735 -1.034984 8.897428 -18.291004 -0.033939 1.177201 -3.236738 0.152624 -9.282079 11.181831 7.887164 -11.338100 2.905918 9.541742 -5.472094 -1.491441 -5.213799 -0.448003 -15.879072 -10.185336 -1.307593 -17.937876 -2.568210 -0.283538 -3.347800 0.000000 0.000000 0.000000 139.191309 -58.315968 50.698899 19.743687 -30.332360 5.401309 72.378958 -100.483230 27.641738 0.000000 0.000000 0.000000 -7.125000 0.000000 0.000000 23.154933 -26.372487 32.800997 0.000000 0.000000 0.000000 -117.576976 -48.657692 -41.473937 -20.803883 -31.598565 -5.946910 -73.749193 33.235299 46.715307 0.000000 0.000000 0.000000 7.125000 0.000000 0.000000 -143.890515 -73.015467 -155.163170
-13.527959 13.911180 0.374678 792.836329 -40.608639 -292.803715 0.000000 0.000000 0.000000 -2.618010 -7.210902 -64.643297 7.264071 15.546133 49.859050 2.306823 2.907302 -29.854801 3.838547 -11.942371 -35.528430 0.000000 0.000000 0.000000 -24.090608 24.288269 -27.643080 -10.072488 -17.431166 59.704665 -1.155406 8.123487 -19.233825 -0.000916 0.115410 -0.317054 -2.155939 -9.915622 11.116381 8.526277 -12.361749 2.119516 11.617744 -5.987730 -1.463262 -6.322550 -0.405421 -15.337145 -11.188952 -1.121412 -17.285720 -2.711169 -0.092112 -3.209466 0.000000 0.000000 0.000000 142.034760 -58.795614 48.095008 20.123276 -30.790149 5.594529 52.548837 -68.448958 17.371645 0.000000 0.000000 0.000000 -7.125000 0.000000 0.000000 15.204832 3.229074 15.069312 0.000000 0.000000 0.000000 -114.259552 -45.618305 -40.130126 -20.426192 -31.152334 -5.750207 -73.895407 36.339242 46.505775 0.000000 0.000000 0.000000 7.125000 0.000000 0.000000 -143.411466 -72.944577 -154.863931
-13.575360 13.844621 0.152041 801.466351 -36.037686 -299.705177 0.000000 0.000000 0.000000 -6.743500 -6.289947 -60.514382 6.113883 14.534532 45.431045 2.221843 2.732821 -29.250146 3.753435 -11.824403 -35.114234 0.000000 0.000000 0.000000 -28.718716 27.490886 -30.005699 -13.505804 -18.939978 70.673873 -1.296505 7.336712 -20.351670 -0.007066 -0.527683 1.449945 -3.038315 -10.613957 10.683588 8.920922 -13.333772 1.618104 12.532883 -6.471158 -1.245077 -6.415449 -0.439025 -14.234226 -12.907327 -1.424073 -17.270945 -3.118157 -0.138492 -3.186765 0.000000 0.000000 0.000000 143.875602 -58.777501 50.076213 20.917972 -31.731737 6.007076 27.869263 -48.575306 11.788103 0.000000 0.000000 0.000000 -7.125000 0.000000 0.000000 0.443397 16.599201 0.386493 0.000000 0.000000 0.000000 -110.687934 -41.968757 -38.606483 -20.201541 -30.884369 -5.634521 -74.212405 39.474236 46.491284 0.000000 0.000000 0.000000 7.125000 0.000000 0.000000 -143.710298 -72.710780 -155.258133
-13.559263 13.750782 -0.070772 807.737362 -30.023186 -304.780730 0.000000 0.000000 0.000000 -9.408048 -5.010802 -57.234061 5.295375 13.707330 42.080609 2.081775 2.020233 -28.058745 3.250580 -11.088504 -32.580626 0.000000 0.000000 0.000000 -32.167584 32.558942 -31.203944 -16.776946 -19.739265 80.533687 -1.473312 5.754328 -21.793129 -0.026425 -1.044902 2.872413 -2.354472 -11.374817 9.734481 9.102019 -14.232428 1.647734 12.169145 -6.923965 -0.612305 -6.065501 -0.608480 -13.782826 -14.713646 -1.807689 -16.500861 -3.593245 -0.325591 -2.828766 0.000000 0.000000 0.000000 143.906449 -57.134054 52.382885 21.782037 -32.729364 6.467813 3.690498 -38.450284 14.803138 0.000000 0.000000 0.000000 -7.125000 0.000000 0.000000 -16.032987 15.501052 -11.729674 0.000000 0.000000 0.000000 -107.341995 -38.379468 -38.158367 -19.757107 -30.348412 -5.408212 -74.664339 43.345886 46.591572 0.000000 0.000000 0.000000 7.125000 0.000000 0.000000 -144.483299 -72.353540 -156.084080
-13.496690 13.630098 -0.256024 812.070549 -23.725846 -308.377003 0.000000 0.000000 0.000000 -11.159148 -3.706893 -54.553992 4.703608 13.041697 39.525398 1.962116 1.013998 -26.878173 2.834078 -10.421318 -30.352187 0.000000 0.000000 0.000000 -35.155029 39.210538 -31.594272 -19.567439 -19.993815 88.735075 -1.639057 2.987771 -23.435024 -0.064325 -1.635079 4.498308 -1.402551 -12.273877 8.801813 9.546377 -15.268877 1.426763 11.977392 -7.423174 -0.233929 -6.697032 -0.753935 -13.625149 -16.048801 -1.692945 -14.234985 -3.888818 -0.350389 -2.147431 0.000000 0.000000 0.000000 140.075488 -54.399153 50.895167 22.275485 -33.286962 6.736419 -7.368703 -33.599817 19.326735 0.000000 0.000000 0.000000 -7.125000 0.000000 0.000000 -22.633666 11.522674 -19.267864 0.000000 0.000000 0.000000 -104.816998 -35.782028 -37.660006 -19.180786 -29.642618 -5.119950 -75.390833 47.753891 46.822250 0.000000 0.000000 0.000000 7.125000 0.000000 0.000000 -145.867444 -71.763691 -157.499497
